<svg xmlns="http://www.w3.org/2000/svg" viewBox="0 0 32 32" width="32" height="32">
  <defs>
    <!-- Sharp gradient for the J -->
    <linearGradient id="sharpGradient" x1="0%" y1="0%" x2="100%" y2="100%">
      <stop offset="0%" style="stop-color:#c084fc;stop-opacity:1" />
      <stop offset="50%" style="stop-color:#a855f7;stop-opacity:1" />
      <stop offset="100%" style="stop-color:#7c3aed;stop-opacity:1" />
    </linearGradient>
    
    <!-- Subtle glow filter -->
    <filter id="sharpGlow" x="-20%" y="-20%" width="140%" height="140%">
      <feGaussianBlur stdDeviation="0.8" result="coloredBlur"/>
      <feMerge> 
        <feMergeNode in="coloredBlur"/>
        <feMergeNode in="SourceGraphic"/> 
      </feMerge>
    </filter>
  </defs>
  
  <!-- Dark background with sharp corners -->
  <rect width="32" height="32" fill="#111827" rx="4"/>
  
  <!-- Sharp J letter with clean lines -->
  <path d="M 22 6 
           L 22 18 
           C 22 21 19 22 16 22 
           C 13 22 12 21 12 18 
           L 12 16 
           L 15 16 
           L 15 18 
           C 15 19 15.5 19 16 19 
           C 16.5 19 17 19 17 18 
           L 17 6 
           Z" 
           fill="url(#sharpGradient)" 
           filter="url(#sharpGlow)"/>
  
  <!-- Sharp highlight edge -->
  <path d="M 20 8 
           L 20 18 
           C 20 20 18.5 20.5 16 20.5 
           C 13.5 20.5 13 20 13 18 
           L 13 17 
           L 14.5 17 
           L 14.5 18 
           C 14.5 18.2 15.2 18.2 16 18.2 
           C 16.8 18.2 17.5 18.2 17.5 18 
           L 17.5 8 
           Z" 
           fill="#c084fc" 
           opacity="0.4"/>
  
  <!-- Sharp inner core -->
  <rect x="19" y="8" width="2" height="8" fill="#ddd6fe" opacity="0.8"/>
</svg>
